<svg xmlns="http://www.w3.org/2000/svg" width="410.422" height="297.796" viewBox="0 0 410.422 297.796">
  <g id="undraw_forming_ideas_0pav" transform="translate(0)">
    <path d="M207.055,271.682a39.86,39.86,0,0,1-58.6-1.279L59.514,354.587,184.577,486.712,303.786,373.874Z" transform="translate(-59.514 -189.694)" fill="#f2f2f2"/>
    <path d="M329.546,223.745a34.792,34.792,0,0,0,25.132-10.689l-24.8-26.2-26.5,25.08A34.809,34.809,0,0,0,329.546,223.745Z" transform="translate(-210.79 -137.868)" fill="#f2f2f2"/>
    <path d="M681.768,282.582a62.584,62.584,0,0,1-62.647,62.647q-.535,0-1.071-.011c-1.5-.023-2.988-.1-4.465-.228a62.65,62.65,0,1,1,68.183-62.408Z" transform="translate(-367.785 -158.387)" fill="#6c63ff"/>
    <path d="M656.983,259.909a62.3,62.3,0,0,0,7.551-22.431,62.647,62.647,0,0,0-105.557,36.673,62.41,62.41,0,0,0,37.941,17.3c1.477.129,2.961.205,4.465.228q.535.011,1.071.011A62.554,62.554,0,0,0,656.983,259.909Z" transform="translate(-369.342 -158.385)" opacity="0.1"/>
    <rect width="100.615" height="112.385" transform="translate(178.438 185.323)" fill="#2f2e41"/>
    <path d="M678.812,394.564a62.721,62.721,0,0,1-43.895,36.6h13.949V543.55h-92.8l52.08-90.208,11.933-20.67.869-1.507,39.5-68.41Z" transform="translate(-367.536 -246.982)" opacity="0.1"/>
    <path d="M634.573,306.924l52.3,90.587,52.3,90.587h-209.2l52.3-90.587Z" transform="translate(-328.753 -190.392)" fill="#3f3d56"/>
    <rect width="396.384" height="0.759" transform="translate(14.038 296.948)" fill="#2f2e41"/>
    <path d="M150.371,730.8l-.693,5.775-3.927,1.848-4.389-1.386-3,1.386-.924-5.313,5.313-6.006Z" transform="translate(-85.254 -451.036)" fill="#9f616a"/>
    <path d="M196.46,800.094s3.581-4.175,3.639-2.088,7.911,9.248,7.911,9.248,12.243,3.7,2.772,6.006-30.26-4.389-30.953-5.775S185.6,795.474,186.3,796.4,190.455,800.556,196.46,800.094Z" transform="translate(-134.116 -515.945)" fill="#2f2e41"/>
    <path d="M218.637,625.531s1.386,10.857,0,12.474-.693,4.851,0,5.313-.924,2.31-2.079,3.234-2.772,5.082-2.772,5.082-6.237,16.4-6.237,18.018-2.772,5.082-2.541,6.237-1.617,4.851-1.386,5.544-3,6.93-2.079,7.854,13.629,4.158,12.936,2.079-1.155-4.62-.693-4.62,2.541-2.541,2.079-3.465,13.86-25.179,13.86-25.179Z" transform="translate(-147.515 -409.988)" fill="#2f2e41"/>
    <path d="M196.46,800.094s3.581-4.175,3.639-2.088,7.911,9.248,7.911,9.248,12.243,3.7,2.772,6.006-30.26-4.389-30.953-5.775S185.6,795.474,186.3,796.4,190.455,800.556,196.46,800.094Z" transform="translate(-134.116 -515.945)" opacity="0.1"/>
    <path d="M218.637,625.531s1.386,10.857,0,12.474-.693,4.851,0,5.313-.924,2.31-2.079,3.234-2.772,5.082-2.772,5.082-6.237,16.4-6.237,18.018-2.772,5.082-2.541,6.237-1.617,4.851-1.386,5.544-3,6.93-2.079,7.854,13.629,4.158,12.936,2.079-1.155-4.62-.693-4.62,2.541-2.541,2.079-3.465,13.86-25.179,13.86-25.179Z" transform="translate(-147.515 -409.988)" opacity="0.1"/>
    <path d="M232.774,729.282l2.541,6.468-1.155,9.009-7.392-.462-4.158-3.7v-7.854Z" transform="translate(-138.09 -452.389)" fill="#9f616a"/>
    <path d="M285.422,797.323s2.541-8.316,3.927-6.006a36.558,36.558,0,0,1,2.31,4.62s11.319,7.392,14.322,7.392,5.775,3.7,1.848,5.082-33.956,3.234-34.418,0,.462-13.629,1.848-12.474S283.8,799.633,285.422,797.323Z" transform="translate(-192.124 -512.577)" fill="#2f2e41"/>
    <path d="M311.4,538.279s10.182,6.919,10.643,7.843,6.37,3.765,1.519,6.075-17.706-12.3-17.706-12.3Z" transform="translate(-212.322 -355.863)" fill="#9f616a"/>
    <path d="M301.407,502.991s7.392,14.322,6.006,14.784-6.93,3.234-6.93,3.234l-2.541-14.553Z" transform="translate(-207.416 -333.973)" fill="#575a88"/>
    <path d="M301.407,502.991s7.392,14.322,6.006,14.784-6.93,3.234-6.93,3.234l-2.541-14.553Z" transform="translate(-207.416 -333.973)" opacity="0.1"/>
    <path d="M252.994,534.445s1.617,12.012.924,14.553.462,40.655-.462,42.734-1.617,15.477-1.617,17.094,1.848,14.784,2.31,15.939,1.848,5.082,1.155,6.93-10.164,6.468-11.55,4.851-.231-6.7-1.386-6.93-2.541-11.088-2.541-11.088l-7.623-42.5s-14.322-35.573-11.088-39.038S252.994,534.445,252.994,534.445Z" transform="translate(-159.465 -353.416)" fill="#2f2e41"/>
    <circle cx="11.319" cy="11.319" r="11.319" transform="translate(73.664 76.389)" fill="#9f616a"/>
    <path d="M271.232,302s-3.7,9.7-3.234,11.781-10.857-3.7-10.857-3.7.693-11.319,0-14.322S271.232,302,271.232,302Z" transform="translate(-182.092 -205.054)" fill="#9f616a"/>
    <path d="M211.72,382.035c.051,1.938.083,3.093.083,3.093s-.693,10.626.462,14.091,1.155,6.006,1.848,8.316c.2.672,2.968,1.033,6.851,1.192,3.562.146,8.064.125,12.386.025,7.156-.166,13.827-.55,14.95-.755,2.541-.462-.462-4.389.462-6.468s-1.617-28.643-1.617-28.643.231-15.015-.924-20.79-5.544-15.015-6.468-16.17-.231-1.848,1.848-3.234,0-6.7,0-6.7c-3.927-3.234-13.86-3.7-13.86-3.7s-15.246,15.708-16.17,18.942c-.559,1.954-.358,17.565-.113,29.618C211.554,375.392,211.653,379.425,211.72,382.035Z" transform="translate(-153.616 -221.885)" fill="#575a88"/>
    <path d="M249.908,555.314s8.778,18.018,1.848,19.173-10.395-16.4-10.395-16.4Z" transform="translate(-172.318 -366.43)" fill="#9f616a"/>
    <path d="M267.629,258.968c.4-1.941-1.083-3.756-2.646-4.976a19.336,19.336,0,0,0-11.9-4.057,12.96,12.96,0,0,0-8.445,2.8,11.706,11.706,0,0,0-3.665,9.55,18.989,18.989,0,0,0,3.826,9.735c.993,1.375,2.587,2.8,4.174,2.2a3.879,3.879,0,0,0,1.544-1.3,23.945,23.945,0,0,0,2.646-4.067,16.2,16.2,0,0,1,1.864-3.211,3.788,3.788,0,0,1,3.243-1.485c1.015.14,2.011.855,2.98.519,1.077-.374,1.338-1.751,1.424-2.888a19.6,19.6,0,0,1,.373-3.869C263.431,258.118,267.443,259.9,267.629,258.968Z" transform="translate(-172.063 -176.998)" fill="#2f2e41"/>
    <path d="M210.6,410.978c2.587,9.33,8.521,25.054,8.861,25.731.086.173.219.513.383.961,3.562.146,8.064.125,12.386.025a25.969,25.969,0,0,1-1.451-3.989c0-1.155-5.544-30.953-5.544-30.953s4.389-13.167,8.316-24.255-11.665-8.893-11.665-8.893c-8.316-2.079-9.817,1.5-9.817,1.5s-.732,19.473-1.73,28.694a18.962,18.962,0,0,1-.811,4.569C209.155,405.046,209.654,407.592,210.6,410.978Z" transform="translate(-152.493 -250.828)" opacity="0.1"/>
    <path d="M222.591,350.434s10.626,4.389,6.7,15.477-8.316,24.255-8.316,24.255,5.544,29.8,5.544,30.953,3.465,7.392,2.079,8.547-10.626,3.465-10.857,2.31a78.118,78.118,0,0,0-2.541-7.854c-.462-.924-11.319-29.8-9.933-32.339,1.02-1.87,1.915-19,2.316-27.919a14.664,14.664,0,0,1,7.645-12.346A10.181,10.181,0,0,1,222.591,350.434Z" transform="translate(-149.852 -239.165)" fill="#575a88"/>
    <rect width="13.668" height="13.668" transform="translate(101.743 178.868)" fill="#6c63ff"/>
    <circle cx="4.176" cy="4.176" r="4.176" transform="translate(104.401 170.515)" fill="#3f3d56"/>
    <circle cx="20.622" cy="20.622" r="20.622" transform="translate(249.374 0.645)" fill="#ff6584"/>
    <path d="M702.977,93.185c0,15.559-9.25,20.992-20.66,20.992s-20.66-5.433-20.66-20.992,20.66-35.354,20.66-35.354S702.977,77.625,702.977,93.185Z" transform="translate(-433.036 -57.831)" fill="#f2f2f2"/>
    <path d="M641.009,53.966l.212-13.022,8.806-16.11L641.253,38.9l.095-5.855,6.069-11.655L641.374,31.5h0l.171-10.531,6.5-9.279-6.472,7.623L641.678,0l-.672,25.563.056-1.055-6.608-10.113,6.5,12.138-.616,11.761-.018-.312L632.7,27.338,640.3,39.084l-.077,1.471-.014.022.006.121-1.562,29.839h2.087l.251-15.412,7.575-11.717Z" transform="translate(-392.48)" fill="#3f3d56"/>
    <path d="M834.958,146.713c-4.937,14.756-15.432,16.973-26.253,13.353s-17.869-11.707-12.932-26.463,30.81-26.972,30.81-26.972S839.9,131.957,834.958,146.713Z" transform="translate(-515.235 -88.103)" fill="#f2f2f2"/>
    <path d="M760.812,99.695l4.332-12.282,13.462-12.484L765.824,85.486l1.948-5.522,9.453-9.127L768.287,78.5h0l3.5-9.932,9.107-6.738-8.556,5.176L778.57,48.73l-8.747,24.029.387-.983-3.057-11.687,2.314,13.574-4.315,10.958.082-.3-3.847-12.51,3.475,13.548-.539,1.37-.02.017-.032.117-10.949,27.8,1.979.662,5.128-14.537,10.9-8.708Z" transform="translate(-467.301 -30.228)" fill="#3f3d56"/>
    <path d="M566.107,139.171c5.6,14.518-1.081,22.914-11.728,27.018s-21.232,2.361-26.828-12.158,6.563-40.418,6.563-40.418S560.511,124.653,566.107,139.171Z" transform="translate(-348.934 -92.434)" fill="#f2f2f2"/>
    <path d="M503.754,106.456l-4.486-12.227,2.423-18.2-3.127,16.281-2.017-5.5,1.471-13.058-2,11.6h0l-3.628-9.888,2.727-11-3.3,9.441L484.971,55.86l8.566,24.094-.328-1-9.8-7.061,10.432,8.988,3.655,11.2-.129-.285L486.43,84.6l11.31,8.229.457,1.4,0,.025.049.11,9.274,28.4,1.947-.75-5.309-14.471,2.855-13.657Z" transform="translate(-299.868 -34.651)" fill="#3f3d56"/>
    <path d="M506.02,495.477c-1.28,2.042-2.941,1.994-4.439,1.055s-2.264-2.413-.984-4.455,5.62-2.94,5.62-2.94S507.3,493.435,506.02,495.477Z" transform="translate(-332.725 -325.38)" fill="#6c63ff"/>
    <path d="M907.64,336.253c.237,2.4-1.106,3.377-2.865,3.55s-3.267-.523-3.5-2.921,2.646-5.764,2.646-5.764S907.4,333.854,907.64,336.253Z" transform="translate(-581.665 -227.357)" fill="#6c63ff"/>
    <path d="M488.084,380.93c-1.28,2.042-2.941,1.994-4.439,1.055s-2.265-2.413-.984-4.455,5.62-2.94,5.62-2.94S489.364,378.888,488.084,380.93Z" transform="translate(-321.599 -254.324)" fill="#6c63ff"/>
  </g>
</svg>
